<svg width="24" height="24" viewBox="0 0 24 24" fill="none" xmlns="http://www.w3.org/2000/svg">
  <path fill-rule="evenodd" clip-rule="evenodd" d="M12 2C6.477 2 2 6.477 2 12s4.477 10 10 10 10-4.477 10-10S17.523 2 12 2Zm0 1.448a8.552 8.552 0 1 1 0 17.104 8.552 8.552 0 0 1 0-17.104Zm3.008 4.637-4.912 1.537a.724.724 0 0 0-.474.474l-1.537 4.912a.724.724 0 0 0 .907.907l4.912-1.537a.724.724 0 0 0 .474-.474l1.537-4.912a.724.724 0 0 0-.907-.907Zm-.888 1.794-1.011 3.23-3.23 1.011 1.011-3.23 3.23-1.011Z" fill="#C7C9D9"/>
</svg>
