<svg width="24" height="24" viewBox="0 0 24 24" fill="none" xmlns="http://www.w3.org/2000/svg">
  <path d="m17.268 8.561-4.266 3.434a2.223 2.223 0 0 1-2.746 0L5.954 8.561" stroke="#BDBDBD" stroke-width="1.5" stroke-linecap="round" stroke-linejoin="round"/>
  <path clip-rule="evenodd" d="M6.888 3h9.428c1.36.015 2.653.59 3.58 1.59a5.017 5.017 0 0 1 1.326 3.704v6.528a5.017 5.017 0 0 1-1.326 3.704 4.957 4.957 0 0 1-3.58 1.59H6.888C3.968 20.116 2 17.741 2 14.822V8.294C2 5.375 3.968 3 6.888 3Z" stroke="#BDBDBD" stroke-width="1.5" stroke-linecap="round" stroke-linejoin="round"/>
</svg>
